# xmcd CD database file
#
# Track frame offsets:
#	150
#	23012
#	46092
#	68229
#	89796
#	115396
#	142664
#	161065
#	179344
#	198119
#	220325
#	230080
#	251981
#	271632
#	285901
#	303802
#
# Disc length: 4065 seconds
#
# Revision: 0
# Processed by: cddbd v1.5.1PL0 Copyright (c) Steve Scherf et al.
# Submitted via: CDex 1.51
#
DISCID=dd0fdf10
DTITLE=Stephen King - Carrie (read by Sissy Spacek) Disk 7
DYEAR=1900
DGENRE=Blues
TTITLE0=Carrie
TTITLE1=Carrie
TTITLE2=Carrie
TTITLE3=Carrie
TTITLE4=Carrie
TTITLE5=Carrie
TTITLE6=Carrie
TTITLE7=Carrie
TTITLE8=Carrie
TTITLE9=Carrie
TTITLE10=Carrie
TTITLE11=Carrie
TTITLE12=Carrie
TTITLE13=Carrie
TTITLE14=Carrie
TTITLE15=Carrie
EXTD=
EXTT0=
EXTT1=
EXTT2=
EXTT3=
EXTT4=
EXTT5=
EXTT6=
EXTT7=
EXTT8=
EXTT9=
EXTT10=
EXTT11=
EXTT12=
EXTT13=
EXTT14=
EXTT15=
PLAYORDER=
